<?xml version="1.0" encoding="UTF-8"?><svg id="a" xmlns="http://www.w3.org/2000/svg" width="24" height="24" viewBox="0 0 24 24"><polygon points="18.54 9.52 18.54 18.93 5.59 18.93 5.59 9.47 12.03 4.65 18.54 9.52"/><path d="M21.14,0H2.86C1.28,0,0,1.28,0,2.87v18.26c0,1.58,1.28,2.87,2.87,2.87h18.26c1.59,0,2.87-1.29,2.87-2.87V2.87c0-1.59-1.28-2.87-2.86-2.87ZM20.63,11.09l-.32-.24v9.83h-1.77v.02H5.59v-.02h-1.76v-9.89l-.4.3c-.63.47-1.53.02-1.53-.76,0-.3.15-.59.39-.77L12.03,2.27l9.75,7.29c.24.18.38.47.38.77,0,.78-.9,1.23-1.53.76Z"/><polygon points="18.54 9.52 18.54 18.93 5.59 18.93 5.59 9.47 12.03 4.65 18.54 9.52"/><path d="M21.78,9.56L12.03,2.27,2.29,9.56c-.24.18-.39.47-.39.77,0,.78.9,1.23,1.53.76l.4-.3v9.89h1.76v.02h12.95v-.02h1.77v-9.83l.32.24c.63.47,1.53.02,1.53-.76,0-.3-.14-.59-.38-.77ZM18.54,18.93H5.59v-9.46l6.44-4.82,6.51,4.87v9.41Z" fill="#fff"/><path d="M14.11,13.01c-.24-.19-.6-.34-1.09-.46l-.4-.1v-1.58s.06.02.08.03c.32.16.48.43.51.81h1.26c-.02-.67-.27-1.18-.75-1.53-.32-.24-.69-.39-1.11-.47v-.83h-.97v.79c-.62.05-1.12.22-1.47.54-.42.37-.62.84-.62,1.4,0,.62.21,1.07.64,1.36.25.17.71.33,1.38.48l.07.02v1.71c-.31-.05-.54-.17-.7-.35-.12-.14-.2-.36-.24-.64h-1.26c0,.65.24,1.17.71,1.54.38.3.88.47,1.48.53v.88h.97v-.88c.57-.06,1.04-.24,1.39-.54.44-.38.67-.86.67-1.43s-.19-.99-.56-1.29ZM11.65,12.22c-.28-.07-.46-.14-.57-.19-.2-.11-.31-.28-.31-.5,0-.24.1-.44.31-.57.15-.1.34-.15.56-.18v1.44ZM12.85,15.12c-.06.02-.15.04-.22.05v-1.47c.22.06.39.13.51.2.18.11.28.27.28.48,0,.36-.19.6-.56.73Z" fill="#fff"/></svg>