<?xml version="1.0" encoding="UTF-8"?><svg id="a" xmlns="http://www.w3.org/2000/svg" width="24" height="24" viewBox="0 0 24 24"><path d="M5.96,11.48v7.42h3.76c-.61-.06-1.16-.31-1.62-.76-.54-.51-.81-1.21-.81-1.93,0-.55.15-1.04.45-1.48.2-.3.45-.55.75-.75.32-.23.68-.36,1.07-.42.14-.02.28-.04.43-.04.13,0,.26.02.39.04.13.02.25.05.37.08.1.03.2.06.29.1l.77-1.34-.12-.27c-.48-.03-.73-.28-.8-.74h2.06c.07,0,.12.04.12.09s-.01.11-.07.11l-.86.41.16.37h4.58c-.1-.5.07-.86.52-1.1.04-.02.05-.06.04-.1s-.05-.06-.12-.06l-.96.09-.17-.42,1.14-.14c.24-.02.42.11.54.37.1.27.04.48-.22.64-.29.2-.38.43-.29.69l.45,1.25v.04c.24-.06.48-.11.73-.11,1.49,0,2.69,1.21,2.69,2.69s-1.2,2.69-2.69,2.69h2.69v1.77H4.19v-8.39l-1.9.85v-1.84L21.23,2.74v1.84l-15.27,6.9Z"/><path d="M21.14,0H2.86C1.28,0,0,1.28,0,2.87v18.26c0,1.58,1.28,2.87,2.87,2.87h18.26c1.59,0,2.87-1.29,2.87-2.87V2.87c0-1.59-1.28-2.87-2.86-2.87ZM21.23,4.58l-15.27,6.9v7.42h3.76c-.61-.06-1.16-.31-1.62-.76-.54-.51-.81-1.21-.81-1.93,0-.55.15-1.04.45-1.48.2-.3.45-.55.75-.75.32-.23.68-.36,1.07-.42.14-.02.28-.04.43-.04.13,0,.26.02.39.04.13.02.25.05.37.08.1.03.2.06.29.1l.77-1.34-.12-.27c-.48-.03-.73-.28-.8-.74h2.06c.07,0,.12.04.12.09s-.01.11-.07.11l-.86.41.16.37h4.58c-.1-.5.07-.86.52-1.1.04-.02.05-.06.04-.1s-.05-.06-.12-.06l-.96.09-.17-.42,1.14-.14c.24-.02.42.11.54.37.1.27.04.48-.22.64-.29.2-.38.43-.29.69l.45,1.25v.04c.24-.06.48-.11.73-.11,1.49,0,2.69,1.21,2.69,2.69s-1.2,2.69-2.69,2.69h2.69v1.77H4.19v-8.39l-1.9.85v-1.84L21.23,2.74v1.84Z"/><path d="M5.96,11.48v7.42h3.76c-.61-.06-1.16-.31-1.62-.76-.54-.51-.81-1.21-.81-1.93,0-.55.15-1.04.45-1.48.2-.3.45-.55.75-.75.32-.23.68-.36,1.07-.42.14-.02.28-.04.43-.04.13,0,.26.02.39.04.13.02.25.05.37.08.1.03.2.06.29.1l.77-1.34-.12-.27c-.48-.03-.73-.28-.8-.74h2.06c.07,0,.12.04.12.09s-.01.11-.07.11l-.86.41.16.37h4.58c-.1-.5.07-.86.52-1.1.04-.02.05-.06.04-.1s-.05-.06-.12-.06l-.96.09-.17-.42,1.14-.14c.24-.02.42.11.54.37.1.27.04.48-.22.64-.29.2-.38.43-.29.69l.45,1.25v.04c.24-.06.48-.11.73-.11,1.49,0,2.69,1.21,2.69,2.69s-1.2,2.69-2.69,2.69h2.69v1.77H4.19v-8.39l-1.9.85v-1.84L21.23,2.74v1.84l-15.27,6.9Z"/><polygon points="5.96 11.48 5.96 18.9 21.23 18.9 21.23 20.67 4.19 20.67 4.19 12.28 2.29 13.13 2.29 11.29 21.23 2.74 21.23 4.58 5.96 11.48" fill="#fff"/><path d="M18.54,13.52c-.25,0-.49.05-.72.11v-.04s-.46-1.25-.46-1.25c-.09-.26,0-.49.29-.69.26-.16.32-.37.22-.64-.12-.26-.3-.39-.54-.37l-1.14.14.17.42.96-.09c.07,0,.11.02.12.06s0,.08-.04.1c-.45.24-.62.6-.52,1.1h-4.58l-.16-.37.86-.41c.06,0,.07-.06.07-.11s-.05-.09-.12-.09h-2.06c.07.46.32.71.8.74l.12.27-.77,1.34c-.09-.04-.19-.07-.29-.1-.12-.03-.24-.06-.37-.08-.13-.02-.26-.04-.39-.04-.15,0-.29.02-.43.04-.39.06-.75.19-1.07.42-.3.2-.55.45-.75.75-.3.44-.45.93-.45,1.48,0,.72.27,1.42.81,1.93.46.45,1.01.7,1.62.76.09.01.18.01.27.01h0c1.43-.01,2.58-1.13,2.67-2.53h.68c.19.03.39-.04.56-.19l3.31-2.8.16.39v.02c-.89.43-1.52,1.35-1.52,2.41,0,1.49,1.2,2.69,2.69,2.69s2.69-1.2,2.69-2.69-1.2-2.69-2.69-2.69ZM11.11,14.47c.49.32.83.84.92,1.45h-1.79l.87-1.45ZM12.02,16.61s0,.02-.01.03c-.19.94-1.03,1.64-2.02,1.64-1.15,0-2.08-.92-2.08-2.07s.93-2.07,2.08-2.07c.24,0,.47.05.69.13l-1.01,1.75c-.05.08-.05.18,0,.26.05.08.12.12.2.1h2.17c0,.07,0,.15-.02.23ZM12.65,15.92c-.1-.84-.56-1.56-1.24-1.98l.58-1.01,1.25,2.99h-.59ZM13.68,15.82l-1.22-2.97h4.54l.05.1-3.37,2.87ZM18.54,18.28c-1.14,0-2.07-.92-2.07-2.07,0-.79.45-1.47,1.1-1.82l.69,1.9c.07.17.18.21.31.15.15-.06.19-.16.13-.31l-.73-1.9c.18-.05.37-.09.57-.09,1.15,0,2.07.93,2.07,2.07s-.92,2.07-2.07,2.07Z" fill="#fff" fill-rule="evenodd"/></svg>